<?xml version="1.0" encoding="UTF-8"?>
<svg id="Calque_1" xmlns="http://www.w3.org/2000/svg" version="1.1" viewBox="0 0 1366 768">
  <!-- Generator: Adobe Illustrator 30.4.0, SVG Export Plug-In . SVG Version: 2.1.4 Build 226)  -->
  <defs>
    <style>
      .st0 {
        fill: #fff200;
      }

      .st0, .st1 {
        fill-rule: evenodd;
      }
    </style>
  </defs>
  <path class="st0" d="M1187.86,251.19c-37.07-162.91-314.65-238.63-619.99-169.14C262.53,151.52,45.06,339.9,82.13,502.82c37.07,162.89,314.64,238.63,619.98,169.13,305.34-69.48,522.82-257.86,485.75-420.76ZM678.68,198c.18-.06.36-.13.54-.19.07.02.14.06.22.08-.26.06-.51.08-.76.11h0Z"/>
  <polygon points="1091.51 217.22 1006.4 343.19 1006.4 471.75 907.38 471.75 907.38 343.19 822.12 217.22 922.32 217.22 956.89 267.9 991.31 217.22 1091.51 217.22"/>
  <g>
    <rect x="679.81" y="217.22" width="51.3" height="126.67"/>
    <rect x="750.7" y="217.22" width="51.3" height="126.67"/>
    <path d="M596.14,304.3c0,13.55-5.15,23.89-15.44,31s-25.43,10.67-45.41,10.67c-22.41,0-41.72-3.19-57.93-9.55l13.69-42.33c3.99,6.19,8.92,11.12,14.82,14.77,5.89,3.65,11.55,5.48,16.97,5.48,2.66,0,4.89-.69,6.69-2.08,1.79-1.38,2.69-3.07,2.69-5.06,0-1.88-.87-3.68-2.61-5.39-1.74-1.72-6.35-4.1-13.82-7.14-6.75-2.71-12.34-5.36-16.77-7.93s-8.27-6.24-11.54-11c-3.26-4.76-4.9-10.76-4.9-18.01,0-14.06,5.12-24.66,15.36-31.79,10.24-7.14,25.35-10.71,45.32-10.71,18.27,0,35.17,2.82,50.72,8.46l-13.94,39.93c-9.13-12.34-19.62-18.51-31.46-18.51-6.59,0-9.88,2.49-9.88,7.47,0,1.55,1.04,3.13,3.11,4.73,2.08,1.61,7.51,4.13,16.31,7.56,9.69,3.81,17.14,7.29,22.37,10.41,5.23,3.13,9.15,7.13,11.75,12s3.9,10.54,3.9,17.02h0Z"/>
    <path d="M660.39,243.95v99.94h-51.3v-99.94c6.75,3.82,15.52,5.73,26.31,5.73,10.02,0,18.35-1.91,24.99-5.73h0Z"/>
  </g>
  <g>
    <path class="st1" d="M384.33,385.07c-2.54-2.41-5.27-4.52-8.2-6.32-.78-.48-1.56-.94-2.37-1.38-.8-.44-1.62-.86-2.45-1.25-1.87-.88-3.8-1.66-5.8-2.34-.67-.23-1.34-.44-2.02-.64-.91-.26-1.84-.51-2.77-.74-.94-.23-1.89-.43-2.86-.61-.96-.18-1.93-.34-2.92-.48-3.24-.46-6.63-.69-10.16-.69s-6.91.23-10.14.69c-1.39.2-2.76.44-4.09.72-1.56.33-3.08.71-4.57,1.16-.74.23-1.47.46-2.19.71s-1.44.52-2.15.8c-2.43.95-4.75,2.09-6.96,3.39h-.01c-1.1.65-2.18,1.34-3.23,2.07-2.1,1.46-4.11,3.1-6.01,4.91-10.13,9.63-15.19,22.1-15.19,37.43s5.13,27.77,15.4,37.32c.96.89,1.95,1.75,2.96,2.56,1.09.88,2.22,1.72,3.37,2.49,7.43,5.08,16.02,8.07,26.08,8.96.78.07,1.56.13,2.35.17,1.44.09,2.9.13,4.38.13s2.95-.04,4.39-.13c.8-.04,1.58-.1,2.37-.17.73-.07,1.46-.14,2.17-.23,10.05-1.21,18.76-4.55,26.11-10.05.52-.39,1.05-.79,1.56-1.21,1.02-.82,2-1.67,2.95-2.57,3.49-3.29,6.38-6.92,8.67-10.88.42-.71.81-1.44,1.19-2.18.37-.75.73-1.51,1.07-2.27.68-1.53,1.27-3.1,1.78-4.71v-.02c.4-1.21.74-2.44,1.03-3.7v-.02c.2-.84.38-1.69.54-2.55.63-3.46.95-7.11.95-10.94,0-15.33-5.08-27.8-15.23-37.43h0ZM353.62,429.04c-.2.23-.41.46-.63.68-.61.61-1.27,1.13-1.98,1.56-.11.07-.23.14-.35.2-.41.24-.85.44-1.3.61-.18.07-.36.13-.54.19-.3.1-.61.18-.92.26-.05.01-.1.02-.15.03-.25.06-.51.11-.77.14-.05.02-.11.02-.16.03-.31.05-.63.08-.96.1-.35.03-.71.04-1.08.04s-.72,0-1.07-.04h-.01c-.32-.02-.64-.05-.95-.1-.05-.01-.11-.01-.16-.03-.26-.03-.51-.08-.76-.14-.06-.01-.11-.02-.16-.04-.3-.07-.6-.15-.89-.25-.17-.06-.35-.13-.53-.19-.09-.03-.18-.07-.26-.11-.24-.1-.48-.21-.71-.33h-.01c-.23-.12-.45-.25-.67-.39-.09-.05-.17-.1-.25-.16-.12-.07-.24-.16-.36-.24-.46-.34-.9-.72-1.31-1.14-2.07-2.1-3.11-4.84-3.11-8.21s1.04-6.13,3.11-8.26c.18-.18.36-.35.54-.51.04-.04.08-.08.13-.11.09-.09.18-.17.28-.24.23-.19.47-.37.72-.54.01-.01.02-.01.02-.01.24-.16.49-.31.74-.45.06-.03.11-.06.17-.09.22-.11.44-.22.67-.32.02-.01.04-.02.07-.03.25-.1.5-.2.76-.29.24-.08.48-.15.73-.21.2-.05.4-.1.61-.14.02,0,.05,0,.07-.02.2-.04.41-.07.62-.1.11-.02.21-.03.32-.04.29-.04.59-.07.89-.08.25-.01.51-.02.76-.02,1.69,0,3.25.27,4.64.82.11.04.21.08.32.13.21.09.41.19.61.29.2.1.39.21.58.32.28.16.55.34.81.53.22.16.43.33.64.51.21.17.41.36.61.56,2.11,2.1,3.16,4.87,3.16,8.3,0,.27-.01.53-.02.78-.01.26-.03.51-.06.76-.02.19-.04.37-.07.56-.04.3-.09.59-.16.87-.04.19-.09.38-.13.56-.05.18-.1.36-.16.53-.02.07-.04.13-.07.2-.02.07-.04.13-.07.19-.04.13-.09.26-.15.38-.05.13-.1.26-.16.38-.06.13-.12.26-.18.38-.26.48-.54.94-.85,1.37h0c-.15.2-.3.39-.45.57h0Z"/>
    <path d="M257.95,413.62l23.49,47.98c-6.64,3.98-14.66,7.17-24.07,9.55-9.41,2.37-18.4,3.57-26.98,3.57-21.53,0-38.67-6.22-51.42-18.64-12.76-12.42-19.14-27.71-19.14-45.86,0-19.2,6.65-35.04,19.93-47.52,13.28-12.48,30.16-18.72,50.63-18.72,8.86,0,18,1.2,27.44,3.61,9.43,2.41,17.3,5.66,23.61,9.75l-23.49,44.74c-6.86-2.38-14.44-3.57-22.74-3.57-11.9,0-17.85,3.24-17.85,9.72,0,3.1,1.66,5.52,4.98,7.26,3.32,1.74,8.05,2.61,14.19,2.61,8.3,0,15.44-1.49,21.42-4.48Z"/>
    <path d="M601.19,409.89v62.75h-48.48v-59.68c0-3.54-.87-6.3-2.61-8.26-1.75-1.97-4.03-2.95-6.85-2.95-3.16,0-6.28,1.08-9.38,3.24v67.65h-48.48v-59.68c0-3.49-.84-6.23-2.53-8.22-.11-.12-.21-.25-.33-.36-.11-.12-.22-.23-.34-.34-.11-.12-.23-.22-.35-.32-.16-.14-.33-.27-.51-.39-.86-.62-1.84-1.05-2.94-1.31-.43-.1-.89-.18-1.36-.22-.35-.03-.72-.05-1.1-.05-.56,0-1.12.04-1.68.12-.26.04-.53.08-.8.13-.52.11-1.05.25-1.59.42-.81.26-1.63.6-2.45,1.01-.56.28-1.11.59-1.66.93-.4.24-.8.51-1.2.79v67.49h-51.3v-99.94h51.3v12.53c8.3-8.91,18.56-13.36,30.79-13.36,14.56,0,25.32,5.75,32.29,17.26,5.7-5.97,11.42-10.34,17.15-13.11,5.72-2.77,12.18-4.15,19.38-4.15,10.84,0,19.39,3.32,25.65,9.96,6.25,6.64,9.38,15.99,9.38,28.06h0Z"/>
    <path class="st1" d="M679.21,441.1c-4.42-2.88-7.58-6.86-9.46-11.96h52.38c0-9.79-1.16-18.09-3.49-24.9-2.32-6.81-5.95-12.78-10.87-17.93-4.93-5.14-10.76-9.05-17.52-11.7-6.75-2.66-14.08-3.99-21.99-3.99-15.5,0-28.1,4.73-37.81,14.2-.91.89-1.78,1.8-2.61,2.73-.24.26-.47.53-.69.8-6.78,7.91-10.5,17.25-11.15,29.18-.03.4-.05.8-.06,1.2-.04.91-.06,1.84-.06,2.78,0,15.77,5.28,28.48,15.85,38.14s24.55,14.48,41.92,14.48c21.09,0,37.25-7.36,48.48-22.08v-17.51c-6.97,7.25-16.21,10.87-27.72,10.87-5.7,0-10.77-1.44-15.2-4.31h0ZM670.17,399.8c2.32-2.68,5.06-4.03,8.21-4.03,3.6,0,6.52,1.4,8.76,4.2,2.24,2.79,3.47,6.68,3.7,11.66h-24.16c0-5.2,1.16-9.14,3.49-11.83h0Z"/>
    <path class="st1" d="M803.73,345.97v29.47c-5.15-2.38-11.6-3.57-19.34-3.57-14.01,0-25.7,4.77-35.08,14.32-.88.9-1.72,1.81-2.51,2.75-.44.51-.86,1.02-1.26,1.54-5.73,7.21-9.05,15.51-10,25.3-.07.7-.13,1.4-.17,2.12-.08,1.29-.12,2.6-.12,3.94,0,.91.02,1.82.06,2.71.02.38.04.75.06,1.13.04.65.09,1.3.16,1.94.96,9.64,4.38,18.08,10.28,25.34.66.83,1.37,1.65,2.11,2.45.87.96,1.79,1.88,2.76,2.79,10.3,9.63,24.77,14.44,43.42,14.44h61.01v-126.67h-51.38,0ZM803.73,436.28h-4.07c-5.26,0-9.09-.98-11.5-2.94-2.41-1.97-3.61-5.08-3.61-9.34,0-3.66,1-6.68,2.99-9.09s4.51-3.61,7.55-3.61c3.21,0,6.09.83,8.64,2.49v22.49Z"/>
  </g>
  <path d="M634.74,166.83c-18.84,0-34.1,13.95-34.1,31.17s15.26,31.17,34.1,31.17,34.1-13.95,34.1-31.17-15.26-31.17-34.1-31.17ZM616.04,193.9c.45-5.29,4.43-8.97,7.7-8.97s7.25,3.68,7.7,8.97c.1,1.08-1.49,1.5-2.05.57l-1.31-2.14c-1.06-1.72-2.64-2.71-4.33-2.71s-3.27.99-4.33,2.71l-1.31,2.14c-.59.93-2.17.5-2.08-.57ZM650.53,209.34c-3.92,4.3-9.67,6.76-15.79,6.76s-11.87-2.46-15.79-6.76c-1.86-2.05,1.51-4.61,3.38-2.58,3.08,3.38,7.59,5.3,12.4,5.3s9.32-1.94,12.4-5.3c1.87-2.04,5.24.54,3.38,2.58ZM651.38,194.47l-1.31-2.14c-1.06-1.72-2.64-2.71-4.33-2.71s-3.27.99-4.33,2.71l-1.31,2.14c-.56.92-2.15.5-2.05-.57.45-5.29,4.43-8.97,7.7-8.97s7.25,3.68,7.7,8.97c.08,1.08-1.51,1.5-2.08.57Z"/>
</svg>